<?xml version="1.0" encoding="UTF-8"?>
<svg width="24px" height="24px" viewBox="0 0 72 72" version="1.1" xmlns="http://www.w3.org/2000/svg" xmlns:xlink="http://www.w3.org/1999/xlink">
    <title>Filled / Page / page_audio</title>
    <g id="Filled-/-Page-/-page_audio" stroke="none" fill="none" fill-rule="nonzero">
        <path d="M47,12 C47,10.6192881 48.1192881,9.5 49.5,9.5 L52.6,9.5 C56.6593119,9.5 59.5,12.3406881 59.5,16.4 L59.5,20.5 C59.5,21.8807119 58.3807119,23 57,23 C55.6192881,23 54.5,21.8807119 54.5,20.5 L54.5,16.4 C54.5,15.1019006 53.8980994,14.5 52.6,14.5 L52,14.5 L52,47 C52,52.7989899 47.2989899,57.5 41.5,57.5 C35.7010101,57.5 31,52.7989899 31,47 C31,41.2010101 35.7010101,36.5 41.5,36.5 C43.3855932,36.5 45.1543197,36.9970703 46.682,37.867 C46.8908726,37.986 47,37.764 47,37.5 L47,12 Z" id="Shape" fill="#FFFFFF"></path>
    </g>
</svg>