<?xml version="1.0" encoding="UTF-8"?>
<svg width="24px" height="24px" viewBox="0 0 72 72" version="1.1" xmlns="http://www.w3.org/2000/svg" xmlns:xlink="http://www.w3.org/1999/xlink">
    <title>Filled / Page / page_table_borderless</title>
    <g id="Filled-/-Page-/-page_table_borderless" stroke="none" fill="none" fill-rule="nonzero">
        <path d="M33.65,38.35 L33.65,52.35 L19.65,52.35 C16.0653776,52.35 13.15,49.4346224 13.15,45.85 L13.15,38.35 L33.65,38.35 Z M58.85,38.35 L58.85,45.85 C58.85,49.4346224 55.9346224,52.35 52.35,52.35 L38.35,52.35 L38.35,38.35 L58.85,38.35 Z M33.65,19.65 L33.65,33.65 L13.15,33.65 L13.15,26.15 C13.15,22.5653776 16.0653776,19.65 19.65,19.65 L33.65,19.65 Z M52.35,19.65 C55.9346224,19.65 58.85,22.5653776 58.85,26.15 L58.85,33.65 L38.35,33.65 L38.35,19.65 L52.35,19.65 Z" id="Shape" fill="#FFFFFF"></path>
    </g>
</svg>
