<svg width="1000" height="1000" viewBox="0 0 1000 1000" fill="none" xmlns="http://www.w3.org/2000/svg">
<path d="M749.383 260.849C753.089 264.656 754.575 267.923 755 273.198C753.841 314.725 726.786 356.342 698.486 384.75C674.696 407.133 644.781 422.413 615.919 437.074C614.97 437.568 614.02 438.063 613.041 438.572C610.581 439.744 610.581 439.744 608.801 439.744C608.801 440.331 608.801 440.919 608.801 441.524C637.387 437.468 662.12 430.211 686.431 414.364C687.677 413.571 687.677 413.571 688.949 412.762C689.687 412.28 690.425 411.799 691.185 411.303C693.824 410.158 695.085 410.342 697.777 411.263C699.557 413.043 699.557 413.043 699.887 416.308C699.773 420.488 698.298 423.226 696.053 426.672C695.69 427.251 695.327 427.829 694.953 428.426C691.551 433.734 687.675 438.549 683.541 443.304C682.674 444.333 681.809 445.363 680.945 446.395C673.023 455.816 664.749 464.14 655.069 471.785C654.231 472.47 653.394 473.155 652.532 473.861C609.165 508.553 549.015 528.982 494.022 534.087C494.022 534.674 494.022 535.262 494.022 535.867C524.173 538.251 554.197 537.688 583.519 529.575C589.541 527.958 595.442 527.103 601.683 527.857C603.463 529.637 603.463 529.637 603.796 531.695C603.23 535.755 600.624 537.967 597.495 540.442C594.459 542.505 591.418 544.553 588.337 546.547C587.819 546.883 587.301 547.218 586.767 547.564C565.532 561.154 541.592 570.069 517.156 575.918C516.273 576.13 515.389 576.341 514.48 576.559C501.784 579.543 489.02 581.84 476.153 583.924C432.859 590.943 391.822 601.526 355.219 626.649C354.66 627.025 354.101 627.401 353.525 627.788C344.922 633.574 337.039 640.1 329.416 647.12C328.836 647.654 328.255 648.189 327.657 648.74C302.29 672.397 285.71 702.866 277.248 736.4C275.904 741.52 274.568 744.9 270.692 748.583C267.967 749.139 267.967 749.139 265.353 748.583C263.054 746.763 261.931 745.704 261.347 742.794C261.487 735.38 262.833 728.561 264.631 721.381C264.922 720.186 265.213 718.99 265.504 717.795C266.076 715.448 266.656 713.104 267.244 710.762C267.874 708.237 268.485 705.71 269.083 703.178C274.487 680.846 282.68 659.152 292.046 638.22C292.831 636.432 293.615 634.643 294.399 632.855C308.536 600.975 326.91 571.507 348.101 543.877C348.742 543.04 348.742 543.04 349.395 542.186C354.632 535.364 360.075 528.853 365.896 522.516C366.901 521.37 367.902 520.221 368.899 519.068C376.23 510.669 383.869 502.612 391.763 494.746C393.213 493.301 394.657 491.851 396.101 490.401C401.007 485.491 405.995 480.745 411.274 476.235C412.854 474.794 414.43 473.348 416.001 471.896C419.994 468.254 424.095 464.796 428.301 461.404C430.541 459.576 432.74 457.709 434.929 455.822C440.763 450.805 446.812 446.152 452.999 441.58C455.328 439.856 457.622 438.101 459.888 436.295C472.003 426.691 484.978 418.327 497.887 409.843C500.461 408.152 503.025 406.449 505.585 404.738C536.267 384.353 569.561 367.963 603.185 353.078C603.857 352.78 604.529 352.481 605.221 352.174C607.121 351.333 609.022 350.497 610.925 349.664C611.495 349.411 612.066 349.159 612.654 348.899C616.603 347.181 616.603 347.181 618.589 347.181C618.589 346.594 618.589 346.007 618.589 345.401C607.752 348.48 597.076 351.909 586.446 355.637C585.295 356.039 585.295 356.039 584.12 356.45C569.244 361.673 554.702 367.496 540.29 373.882C539.323 374.31 538.356 374.738 537.359 375.179C531.179 377.929 525.043 380.764 518.935 383.672C517.714 384.253 517.714 384.253 516.468 384.845C504.12 390.76 492.28 397.395 480.532 404.419C478.191 405.813 475.84 407.189 473.485 408.558C456.879 418.273 441.028 429.273 425.51 440.634C424.215 441.579 424.215 441.579 422.893 442.543C415.829 447.765 409.032 453.296 402.243 458.868C400.787 460.059 399.323 461.242 397.858 462.422C392.922 466.408 388.174 470.545 383.514 474.851C381.578 476.618 379.623 478.348 377.644 480.066C373.771 483.446 370.021 486.945 366.286 490.476C365.649 491.074 365.011 491.673 364.355 492.29C356.704 499.46 356.704 499.46 349.603 507.163C347.116 510.052 344.565 512.87 341.984 515.674C320.687 539.118 301.336 566.765 287.684 595.439C287.415 596.002 287.146 596.564 286.868 597.144C286.149 598.669 285.449 600.204 284.751 601.739C282.772 605.024 280.926 606.622 277.81 608.849C274.696 609.516 274.696 609.516 271.582 608.849C265.844 604.477 264.342 597.754 262.573 591.104C262.272 589.996 261.971 588.888 261.661 587.746C252.842 554.389 251.03 517.524 267.133 486.025C268.014 486.025 268.895 486.025 269.802 486.025C269.827 487.416 269.844 488.807 269.858 490.197C269.868 490.972 269.879 491.746 269.889 492.544C269.802 494.926 269.802 494.926 269.363 496.924C268.524 501.49 268.712 506.136 268.699 510.766C268.69 512.579 268.663 514.39 268.634 516.203C268.569 524.558 269.642 532.181 271.582 540.317C273.525 533.433 275.25 526.586 276.619 519.563C284.541 479.216 301.911 436.121 333.99 408.781C336.388 407.219 338.216 407.163 340.983 407.703C341.873 408.593 341.873 408.593 341.991 411.288C341.989 412.436 341.986 413.584 341.984 414.768C341.988 416.459 341.988 416.459 341.991 418.185C341.946 420.846 341.729 423.444 341.428 426.088C340.829 431.695 340.853 437.281 340.872 442.915C340.868 443.954 340.865 444.993 340.861 446.063C340.868 451.746 341.116 457.251 341.873 462.885C342.46 462.885 343.047 462.885 343.652 462.885C343.665 462.351 343.678 461.818 343.691 461.268C345.315 430.394 358.153 400.702 379.243 378.332C379.788 377.73 380.332 377.128 380.894 376.507C416.075 339.064 484.51 325.485 532.308 313.791C534.114 313.347 535.919 312.899 537.724 312.449C552.073 308.876 566.466 305.528 580.894 302.295C610.583 295.628 640.458 288.688 669.46 279.425C671.888 278.676 674.329 277.98 676.773 277.288C684.13 275.186 691.356 272.778 698.58 270.26C699.593 269.909 700.606 269.557 701.649 269.194C705.859 267.731 710.067 266.265 714.269 264.779C717.377 263.683 720.49 262.603 723.605 261.527C725.012 261.022 725.012 261.022 726.448 260.507C734.417 257.778 741.834 256.469 749.383 260.849Z" fill="#FDFEFE"/>
</svg>
