<svg width="16" height="16" viewBox="0 0 16 16" fill="none" xmlns="http://www.w3.org/2000/svg">
<path d="M12.2 15.4C13.415 15.4 14.4 14.415 14.4 13.2C14.4 11.985 13.415 11 12.2 11C10.985 11 10 11.985 10 13.2C10 14.415 10.985 15.4 12.2 15.4Z" fill="#888888"/>
<path d="M13.8652 2.06963C13.9541 2.16267 13.9898 2.24252 14 2.37144C13.9722 3.38635 13.3229 4.40347 12.6437 5.09777C12.0727 5.64479 11.3547 6.01825 10.6621 6.37655C10.6393 6.38864 10.6165 6.40072 10.593 6.41317C10.5339 6.44181 10.5339 6.44181 10.4912 6.44181C10.4912 6.45617 10.4912 6.47052 10.4912 6.48531C11.1773 6.38618 11.7709 6.20882 12.3543 5.82153C12.3843 5.80214 12.3843 5.80214 12.4148 5.78236C12.4325 5.7706 12.4502 5.75883 12.4684 5.74671C12.5318 5.71874 12.562 5.72322 12.6267 5.74574C12.6694 5.78925 12.6694 5.78925 12.6773 5.86903C12.6746 5.97119 12.6391 6.03811 12.5853 6.12233C12.5766 6.13647 12.5678 6.15061 12.5589 6.16519C12.4772 6.29492 12.3842 6.41261 12.285 6.52882C12.2642 6.55397 12.2434 6.57915 12.2227 6.60436C12.0325 6.83461 11.834 7.03804 11.6016 7.22489C11.5816 7.24163 11.5615 7.25837 11.5408 7.27561C10.5 8.12349 9.05636 8.62278 7.73653 8.74754C7.73653 8.76189 7.73653 8.77625 7.73653 8.79104C8.46015 8.8493 9.18073 8.83555 9.88446 8.63728C10.029 8.59776 10.1706 8.57687 10.3204 8.59527C10.3631 8.63878 10.3631 8.63878 10.3711 8.68908C10.3575 8.78831 10.295 8.84237 10.2199 8.90286C10.147 8.95327 10.074 9.00333 10.0001 9.05207C9.98765 9.06027 9.97522 9.06847 9.96241 9.07692C9.45277 9.40905 8.8782 9.62695 8.29174 9.76989C8.27054 9.77506 8.24935 9.78023 8.22751 9.78556C7.92282 9.85849 7.61647 9.91462 7.30768 9.96555C6.26862 10.1371 5.28374 10.3957 4.40526 11.0098C4.39184 11.0189 4.37842 11.0281 4.36459 11.0376C4.15813 11.179 3.96893 11.3385 3.78599 11.5101C3.77205 11.5231 3.75812 11.5362 3.74376 11.5496C3.13495 12.1278 2.73704 12.8725 2.53395 13.6921C2.50171 13.8172 2.46964 13.8998 2.37661 13.9898C2.31121 14.0034 2.31121 14.0034 2.24848 13.9898C2.1933 13.9453 2.16635 13.9194 2.15233 13.8483C2.15568 13.6671 2.18799 13.5005 2.23113 13.325C2.23814 13.2958 2.24512 13.2666 2.25209 13.2373C2.26583 13.18 2.27975 13.1227 2.29385 13.0655C2.30898 13.0038 2.32364 12.942 2.33799 12.8801C2.46769 12.3343 2.66432 11.8041 2.88911 11.2925C2.90794 11.2488 2.92676 11.2051 2.94558 11.1614C3.28487 10.3823 3.72585 9.66207 4.23443 8.98681C4.2498 8.96635 4.2498 8.96635 4.26549 8.94547C4.39117 8.77874 4.5218 8.61962 4.66151 8.46476C4.68563 8.43675 4.70966 8.40865 4.73359 8.38047C4.90953 8.17522 5.09285 7.97829 5.28232 7.78605C5.3171 7.75073 5.35177 7.7153 5.38643 7.67986C5.50417 7.55985 5.62388 7.44386 5.75058 7.33365C5.7885 7.29842 5.82633 7.26308 5.86403 7.22761C5.95986 7.13858 6.05828 7.05407 6.15923 6.97117C6.21298 6.9265 6.26575 6.88088 6.31829 6.83476C6.45832 6.71214 6.60349 6.59841 6.75198 6.48667C6.80786 6.44454 6.86293 6.40165 6.91731 6.35752C7.20807 6.12278 7.51947 5.91837 7.8293 5.71104C7.89106 5.66971 7.95261 5.62808 8.01405 5.58625C8.7504 5.08806 9.54947 4.68749 10.3564 4.3237C10.3726 4.31641 10.3887 4.30912 10.4053 4.3016C10.4509 4.28105 10.4965 4.26063 10.5422 4.24026C10.5559 4.23409 10.5696 4.22792 10.5837 4.22156C10.6785 4.17959 10.6785 4.17959 10.7261 4.17959C10.7261 4.16523 10.7261 4.15087 10.7261 4.13608C10.466 4.21133 10.2098 4.29512 9.9547 4.38623C9.92707 4.39608 9.92707 4.39608 9.89888 4.40612C9.54185 4.53376 9.19285 4.67607 8.84695 4.83215C8.82374 4.84261 8.80053 4.85306 8.77662 4.86383C8.6283 4.93106 8.48102 5.00034 8.33445 5.07142C8.30514 5.08561 8.30514 5.08561 8.27523 5.10009C7.97888 5.24463 7.69473 5.4068 7.41276 5.57846C7.35658 5.61254 7.30017 5.64617 7.24363 5.67964C6.8451 5.91706 6.46468 6.18589 6.09225 6.46356C6.06116 6.48665 6.06116 6.48665 6.02944 6.51021C5.85991 6.63783 5.69676 6.77301 5.53383 6.90919C5.49888 6.93832 5.46375 6.96721 5.4286 6.99606C5.31013 7.09347 5.19618 7.19459 5.08435 7.29983C5.03787 7.34301 4.99095 7.38529 4.94346 7.42728C4.8505 7.50987 4.76051 7.5954 4.67086 7.68168C4.65557 7.69632 4.64027 7.71096 4.62452 7.72604C4.44089 7.90126 4.44089 7.90126 4.27046 8.08953C4.21078 8.16012 4.14955 8.22899 4.08762 8.29754C3.57649 8.87049 3.11206 9.54619 2.78442 10.247C2.77796 10.2607 2.7715 10.2745 2.76484 10.2886C2.74757 10.3259 2.73077 10.3634 2.71402 10.401C2.66653 10.4812 2.62222 10.5203 2.54744 10.5747C2.4727 10.591 2.4727 10.591 2.39796 10.5747C2.26025 10.4679 2.22421 10.3036 2.18175 10.141C2.17453 10.114 2.1673 10.0869 2.15985 10.059C1.9482 9.24372 1.90471 8.34275 2.29119 7.57292C2.31233 7.57292 2.33347 7.57292 2.35525 7.57292C2.35584 7.60691 2.35625 7.6409 2.35659 7.67488C2.35684 7.69381 2.35708 7.71274 2.35734 7.73224C2.35525 7.79044 2.35525 7.79044 2.34472 7.83929C2.32457 7.95088 2.32908 8.06442 2.32877 8.17758C2.32857 8.22188 2.3279 8.26616 2.32723 8.31046C2.32566 8.51467 2.3514 8.70097 2.39796 8.8998C2.44461 8.73155 2.486 8.56422 2.51887 8.39259C2.70899 7.4065 3.12586 6.35326 3.89576 5.68507C3.95332 5.64689 3.99719 5.64553 4.0636 5.65873C4.08495 5.68048 4.08495 5.68048 4.08779 5.74634C4.08773 5.7744 4.08768 5.80247 4.08762 5.83139C4.0877 5.87274 4.0877 5.87274 4.08779 5.91492C4.08671 5.97995 4.08149 6.04344 4.07427 6.10805C4.05989 6.24509 4.06048 6.38161 4.06093 6.5193C4.06084 6.54469 4.06076 6.57008 4.06068 6.59624C4.06083 6.73514 4.06677 6.86969 4.08495 7.00737C4.09904 7.00737 4.11314 7.00737 4.12766 7.00737C4.12796 6.99433 4.12826 6.98129 4.12858 6.96785C4.16756 6.21331 4.47568 5.48763 4.98183 4.94091C4.9949 4.92619 5.00798 4.91147 5.02145 4.8963C5.86581 3.98119 7.50823 3.64932 8.65539 3.36352C8.69875 3.35269 8.74207 3.34173 8.78538 3.33073C9.12974 3.24341 9.47518 3.16158 9.82146 3.08256C10.534 2.91963 11.251 2.75002 11.947 2.52363C12.0053 2.50532 12.0639 2.48831 12.1226 2.47139C12.2991 2.42003 12.4725 2.36117 12.6459 2.29964C12.6702 2.29105 12.6945 2.28245 12.7196 2.27359C12.8206 2.23782 12.9216 2.20199 13.0225 2.16568C13.097 2.13888 13.1718 2.11251 13.2465 2.0862C13.2803 2.07386 13.2803 2.07386 13.3147 2.06128C13.506 1.99458 13.684 1.96258 13.8652 2.06963Z" fill="white"/>
</svg>
